# xmcd
#
# Track frame offsets:
#  150
#  14305
#  28340
#  40797
#  53072
#  68460
#  82822
#  98822
#  111950
#  128072
#  141947
#  158230
#  171285
#  189285
#  206982
#  222550
#  237815
#  249627
#  264557
#  282167
#  296515
#  306365
#  318380
#  327462
#
# Disc length: 4601 seconds
#
# Revision: 0
# Processed by: cddbd v1.5.1PL0 Copyright (c) Steve Scherf et al.
# Submitted via: AltoMP3_Maker 3.0
#
DISCID=6311f718
DTITLE=Mary Duff - Introducing Mary Duff
DYEAR=1900
DGENRE=
TTITLE0=Love Someone Like Me
TTITLE1=She's Got You
TTITLE2=Are You Teasing Me
TTITLE3=Crazy
TTITLE4=Forever and Ever Amen
TTITLE5=It's Not Over (If I'm Not Over You)
TTITLE6=Daddy's Hands
TTITLE7=Pick Me Up (On Your Way Down)
TTITLE8=Dear God
TTITLE9=Chicken Every Sunday
TTITLE10=There Wont Be Any Patches In Heaven
TTITLE11=Do Me With Love
TTITLE12=Goin' Gone
TTITLE13=Yellow Roses
TTITLE14=Eighteen Wheels and  a Dozen Roses
TTITLE15=Can I Sleep In Your Arms
TTITLE16=Once A Day
TTITLE17=Does Fort Worth Ever Cross Your Mind
TTITLE18=One Bird On A Wing
TTITLE19=Just Out Of Reach
TTITLE20=Heartaches By The Number
TTITLE21=I'm Not That Lonely Yet
TTITLE22=Come On In
TTITLE23=Maggie
EXTD=
EXTT0=
EXTT1=
EXTT2=
EXTT3=
EXTT4=
EXTT5=
EXTT6=
EXTT7=
EXTT8=
EXTT9=
EXTT10=
EXTT11=
EXTT12=
EXTT13=
EXTT14=
EXTT15=
EXTT16=
EXTT17=
EXTT18=
EXTT19=
EXTT20=
EXTT21=
EXTT22=
EXTT23=
PLAYORDER=
